<svg width="41" height="41" viewBox="0 0 41 41" fill="none" xmlns="http://www.w3.org/2000/svg">
<circle cx="20.5" cy="20.5" r="20" stroke="white"/>
<path d="M36 33L34.5583 30.9073C34.1427 30.3039 33.6681 29.7434 33.1417 29.2339L33.0124 29.1088C30.3689 26.5506 26.5995 25.5243 23.024 26.3894V26.3894C21.3653 26.7907 19.6347 26.7907 17.976 26.3894V26.3894C14.4005 25.5243 10.6311 26.5506 7.9876 29.1088L7.85835 29.2339C7.33186 29.7434 6.85731 30.3039 6.44167 30.9073L5 33" stroke="white"/>
<path d="M14.3603 31.4938C14.8007 31.299 15.226 31.0802 15.612 30.7879C15.7786 30.6617 16.1996 30.3297 16.2833 30.0949C16.4669 29.5801 15.4834 29.8155 15.3868 29.8416C14.6992 30.0271 13.7877 30.4976 13.4985 31.1993C13.3855 31.4736 13.3624 31.7763 13.6955 31.9183C14.29 32.1717 15.0666 31.6847 15.4907 31.3206C15.8819 30.9848 16.0651 30.5181 15.6726 30.1122C15.2934 29.7201 14.6591 29.784 14.2044 29.9802C13.3328 30.3563 12.5241 31.1946 13.1866 32.1522C13.4657 32.5554 14.0009 32.5995 14.447 32.5463C15.1843 32.4583 15.9293 32.063 16.4457 31.535C17.1516 30.8133 17.9538 29.2089 16.5302 28.7783C14.7763 28.2479 11.8245 29.173 11.844 31.3726C11.851 32.1595 12.2871 33.0104 13.0762 33.2501C13.6162 33.4141 14.1956 33.3285 14.735 33.2089C15.5555 33.027 16.3166 32.6971 16.9719 32.1651C17.6508 31.6141 18.2109 30.7246 17.9313 29.8199C17.6042 28.7618 16.5622 28.1144 15.5774 27.7648C13.446 27.0084 11.4921 28.5782 10.4191 30.3115C10.1371 30.767 10.1776 31.128 10.5404 31.5198C11.0766 32.0989 11.7728 32.4474 12.563 32.2604C13.5142 32.0353 14.5356 31.5114 14.9645 30.5887C15.3093 29.8469 15.1913 29.0502 14.6635 28.4232C14.2282 27.9059 13.6618 27.822 13.074 27.6046C12.5161 27.3982 12.0507 27.4983 11.4889 27.6739C10.9096 27.8549 10.5371 28.227 10.0337 28.5314C9.61567 28.7842 9.24688 29.0366 8.90327 29.389C8.55993 29.7411 8.15549 30.0142 7.81186 30.3634C7.44172 30.7397 7.15291 31.1513 6.84604 31.5718C6.66969 31.8135 6.55206 32.0438 6.33932 32.2648C6.23352 32.3746 6.13382 32.5807 6.33932 32.5853C6.95849 32.599 7.61722 33.1424 8.19299 32.6459C8.69453 32.2134 9.1711 31.5149 9.04403 30.8334C8.99603 30.5759 9.27182 30.5204 9.4793 30.4414C9.57469 30.4051 9.50015 30.4792 9.47064 30.5237C9.27525 30.8186 9.07284 31.1073 8.8513 31.3834C8.61244 31.6811 8.34347 31.9652 8.02408 32.1781C7.703 32.3922 7.32284 32.4764 7.00196 32.7022C6.42903 33.1054 7.16415 33.6268 7.52601 33.8023C8.44811 34.2493 9.31673 34.9162 10.4018 34.6901C10.8636 34.5939 11.3753 34.3056 11.5863 33.8694C11.8785 33.2656 11.3897 32.7401 10.8219 32.5636C10.2581 32.3883 9.38489 32.2613 8.9271 32.739C8.66177 33.0159 8.76825 33.437 9.00289 33.6897C9.44696 34.1679 10.0928 34.1323 10.5924 33.7914C10.7165 33.7068 11.2744 33.4001 11.0818 33.1699C10.8463 32.8886 10.1887 32.9659 9.87775 32.9794C9.36382 33.0017 8.8897 33.167 8.42686 33.3822C7.72477 33.7086 7.81828 34.3085 8.40521 34.7378C8.63817 34.9081 8.83075 35.1071 9.0462 35.2965C9.37308 35.5837 9.85621 35.8254 10.2675 35.9591C10.7805 36.1258 11.5181 36.1601 12.0303 35.9873C12.3301 35.8861 12.6128 35.7424 12.8986 35.6083C13.255 35.4412 13.6469 35.3219 13.9706 35.0929C14.3124 34.8511 15.2524 33.9477 14.4231 33.6485C14.0437 33.5116 13.5303 33.6415 13.1607 33.7481C12.7995 33.8523 12.1964 34.0208 12.0086 34.3913C11.8548 34.6948 11.7668 35.3261 11.883 35.6581C11.9442 35.8331 11.7631 35.7815 11.6318 35.7815" stroke="white" stroke-width="2" stroke-linecap="round"/>
<path d="M10.3066 36.522C10.6575 36.7878 10.9844 37.0965 11.3504 37.3406C11.6324 37.5285 11.8488 37.7936 12.1235 37.9837C12.412 38.1835 12.8243 38.1981 13.1608 38.1981C13.8501 38.1981 14.4284 38.4465 15.0967 38.6074C15.6745 38.7465 16.1981 38.8608 16.7988 38.8608C17.2485 38.8608 17.6931 38.7828 18.1414 38.7828C18.9048 38.7828 19.6029 39.2072 20.3827 39.2072C20.7213 39.2072 21.0791 39.1623 21.4157 39.1249C21.5925 39.1053 21.7649 39.1039 21.9419 39.0925C22.0571 39.085 22.1616 39.0225 22.2732 39.0167C22.5324 39.003 22.7796 39.072 23.0355 39.0925C23.4918 39.129 23.9605 39.0785 24.3954 38.9387C24.9471 38.7614 25.5051 38.614 26.0499 38.4082C26.7529 38.1426 27.3908 37.7778 28.0681 37.4575C28.5955 37.2081 29.1416 37.0695 29.6879 36.8728C30.0689 36.7357 30.4239 36.5448 30.788 36.3683C31.1067 36.2137 31.442 36.1073 31.7625 35.9568C32.0768 35.8092 32.3804 35.5709 32.6503 35.3526C32.9836 35.0832 33.3242 34.8348 33.6638 34.5731C34.1617 34.1892 34.6451 33.7971 34.883 33.1893C34.9855 32.9273 35.0202 32.6866 34.9111 32.4205C34.8651 32.3082 34.8487 32.1624 34.7812 32.0611C34.7005 31.9401 34.5154 31.8506 34.3957 31.7752C34.2188 31.6638 34.0462 31.5647 33.8933 31.4201C33.6084 31.1505 33.2592 30.9839 32.934 30.7683C32.5088 30.4863 32.1861 30.1347 31.8491 29.757C31.5504 29.4222 31.3546 29.0116 31.05 28.6829C30.7988 28.4117 30.4874 28.2013 30.2531 27.9141C30.1354 27.7698 30.0541 27.6414 29.8871 27.5482C29.487 27.3247 29.0701 27.1173 28.6355 26.97C27.9942 26.7526 27.2913 26.7047 26.6172 26.6993C26.0244 26.6945 25.4628 26.7187 24.8848 26.8552C24.4604 26.9554 24.0373 27.0111 23.6007 27.0111C22.9556 27.0111 22.3753 27.1793 21.7405 27.2428C21.075 27.3094 20.3961 27.4009 19.7266 27.4009C18.936 27.4009 18.1099 27.3016 17.3229 27.2407C16.496 27.1766 15.6687 27.1179 14.8412 27.0631C14.4912 27.0399 14.6231 27.056 14.7243 27.0414C15.0405 26.9957 15.322 26.7911 15.623 26.7447C15.7301 26.7283 15.9539 26.9456 16.0279 27.0024C16.3173 27.2248 16.5407 27.4665 16.7079 27.795C16.7934 27.9631 16.9445 28.1799 16.9201 28.3754C16.9073 28.4774 16.8329 28.5876 16.8421 28.6915C16.8627 28.9229 17.3574 29.0018 17.5134 29.0424C18.1894 29.2178 18.8908 29.1795 19.5793 29.2589C20.3463 29.3474 21.095 29.558 21.8618 29.653C22.9907 29.793 24.1258 29.8142 25.2573 29.915C25.8568 29.9685 26.9251 30.3778 27.1391 29.5621C27.2188 29.2584 27.1443 28.9639 26.8316 28.8388C25.7724 28.4151 24.4939 28.3553 23.369 28.2454C22.5234 28.1629 21.6626 28.1579 20.8137 28.1848C20.2818 28.2017 19.7972 28.3768 19.2935 28.5313C19.0209 28.6149 18.7999 28.6609 18.6395 28.9081C18.4661 29.1753 18.3434 29.3948 18.0721 29.5794C16.9974 30.3108 15.8549 30.9269 14.8607 31.7731C14.4816 32.0957 14.1097 32.4244 13.7238 32.7389C13.3809 33.0183 13.1874 33.2982 13.1131 33.7372C13.0059 34.3709 12.7841 34.9571 12.9009 35.5995C12.9423 35.8274 12.9703 36.0583 13.1694 36.2102C13.5809 36.5241 14.2727 36.5226 14.7481 36.4029C15.7532 36.1498 16.6509 35.476 17.3662 34.7506C18.0294 34.078 18.4849 33.2005 18.5356 32.2451C18.5633 31.7226 18.3562 31.3093 18.8409 30.9458C19.1089 30.7448 19.4176 30.5909 19.7223 30.4543C19.7729 30.4315 20.2636 30.1721 20.1727 30.4543C20.0737 30.7616 19.8034 31.0487 19.5837 31.2685C19.0645 31.7876 18.4436 32.226 17.8015 32.5786C16.6602 33.2054 15.1668 33.5587 14.2609 34.5471C13.9517 34.8843 13.8221 35.4694 14.2479 35.7727C14.6807 36.081 15.2944 36.0933 15.8005 36.1495C16.1057 36.1834 16.5044 36.3445 16.8075 36.2925C17.0433 36.252 17.2625 36.1308 17.442 35.9763C17.8137 35.6564 18.4899 34.9061 18.2302 34.3543C17.9772 33.8166 17.063 33.8269 16.5953 33.8801C15.9517 33.9533 15.3733 34.237 14.9148 34.6878C14.4215 35.173 13.7825 36.4574 14.8499 36.6866C17.8261 37.3256 20.0153 34.6556 21.9051 32.819C21.9389 32.7861 22.8667 32.0243 22.6305 31.877C22.4923 31.7908 22.3103 31.7918 22.1476 31.8012C21.4828 31.8396 20.5615 32.0749 19.9778 32.3642C19.1667 32.7663 18.666 33.3403 18.3667 34.1703C18.3562 34.1992 18.0372 35.0673 18.254 35.0863C18.4989 35.1078 18.8742 34.8387 19.0769 34.742C19.2922 34.6393 19.9425 34.3416 19.7309 34.4518C19.4064 34.6207 19.0798 34.7851 18.7564 34.9563C18.636 35.0201 18.3714 35.2691 18.3883 35.1339C18.3939 35.0888 18.4496 35.0666 18.4836 35.0365C18.589 34.9431 18.6985 34.8543 18.8062 34.7636C19.4846 34.1931 20.17 33.6299 20.8353 33.0442C21.3032 32.6323 21.9811 32.1415 22.2646 31.5543C22.3452 31.3873 22.2836 30.4565 21.9051 30.5409C21.4872 30.634 20.9443 31.2485 20.6837 31.5024C20.5691 31.6141 19.3937 32.6233 19.7158 32.9554C19.7526 32.9935 19.9043 32.9643 19.8262 33.0312C19.4859 33.3229 19.116 33.5921 18.7651 33.8714" stroke="white" stroke-width="2" stroke-linecap="round"/>
<path d="M12.3723 35.6257C12.315 35.9555 12.4074 36.16 12.4892 36.4746C12.5547 36.7262 12.4388 36.9788 12.6148 37.1914C12.8534 37.4794 13.2058 37.5589 13.5612 37.6028C14.3261 37.6972 15.0686 37.6073 15.8155 37.4317C16.9415 37.1671 18.044 36.8038 19.1763 36.5655C19.384 36.5218 19.6063 36.4279 19.8087 36.4919C19.8314 36.4991 19.7887 36.5395 19.7675 36.5504C19.5377 36.6682 18.963 36.8101 18.806 36.8492C18.1226 37.0196 17.5534 37.1399 16.8527 37.2412C16.5593 37.2836 15.6045 37.4843 15.2481 37.3061C15.1448 37.2545 15.4796 37.2865 15.5946 37.2975C16.2034 37.3557 16.8077 37.4408 17.4179 37.488C18.3688 37.5616 19.3 37.5783 20.2461 37.4469C21.0795 37.3311 21.9026 37.1797 22.7407 37.0982C23.5159 37.0229 24.237 36.88 24.9626 36.5872C25.5089 36.3667 27.0557 35.5077 26.5174 35.747C25.2214 36.323 23.958 36.8748 22.5935 37.2845C22.3257 37.3649 22.0516 37.4232 21.7836 37.5032C21.6788 37.5345 21.5346 37.5255 21.4761 37.618C21.4407 37.674 21.586 37.6958 21.6493 37.7154C22.0787 37.8482 22.4833 37.864 22.9378 37.8562C24.3498 37.8319 25.8874 37.5455 27.1844 36.9683C28.1401 36.543 29.148 35.7862 29.4646 34.74C29.7326 33.8546 29.2965 33.0186 28.5898 32.4836C26.9699 31.2572 24.6689 31.0336 22.8057 31.7841C22.1733 32.0388 21.0154 32.7347 20.5103 33.2047C20.0894 33.5963 19.5251 34.2871 19.6484 34.9544C19.7657 35.5895 20.533 36.138 21.0473 36.362C22.1087 36.8241 23.3438 36.7759 24.4147 36.401C25.4029 36.055 26.6504 35.2873 27.0284 34.2419C27.6804 32.4391 24.8483 32.1549 23.7585 32.2995C22.9881 32.4017 21.8271 32.7731 21.2725 33.3909C21.0294 33.6617 20.8572 34.0281 20.8351 34.3914C20.7775 35.3396 21.4755 35.9054 22.2015 36.3295C23.8626 37.2997 26.0982 37.1279 27.3489 35.5781C27.61 35.2545 27.8602 34.7053 27.7647 34.2658C27.6591 33.7794 27.1454 33.2753 26.7209 33.0834C26.0558 32.7827 25.1565 32.7581 24.4732 32.9924C23.5424 33.3117 22.4128 34.2774 23.0634 35.3702C23.4411 36.0045 24.1365 36.2105 24.8196 36.245C25.7861 36.2938 27.125 35.8538 27.6478 34.9587C27.96 34.4241 27.7677 33.8711 27.2667 33.5468C26.3827 32.9746 24.8762 32.9403 23.9491 33.4126C22.8232 33.9861 23.3192 35.2428 24.471 35.1861C24.7938 35.1702 25.1948 35.0322 25.3718 34.7292C25.5402 34.441 25.0952 34.6385 25.0362 34.7075C24.7469 35.0461 24.2603 34.6664 23.8798 34.8829C23.7321 34.967 24.1994 35.0197 24.3692 35.0259C24.5785 35.0334 24.7885 35.0279 24.9972 35.0107C26.581 34.8799 24.7207 34.9962 26.015 34.8071" stroke="white" stroke-width="2" stroke-linecap="round"/>
<path d="M21.6104 34.7293C22.0271 34.5065 22.5783 34.1323 23.0829 34.3005C23.3034 34.374 23.0938 34.3571 23.2561 34.4391C23.5037 34.5641 23.9546 34.4962 24.1981 34.4846C25.1129 34.441 26.0294 34.3217 26.9462 34.3871C27.3929 34.4191 27.8002 34.4486 28.252 34.4153C29.071 34.355 29.9032 34.2643 30.7185 34.1663C31.7132 34.0466 32.5454 33.6245 33.421 33.1658C33.7515 32.9927 34.5128 32.6627 34.075 32.2086C33.8398 31.9647 33.4779 31.9384 33.1612 31.8925C32.6936 31.8247 32.2938 31.7756 31.8922 32.0614C31.5583 32.299 30.5599 32.9892 30.7878 33.5253C30.8792 33.7403 31.0367 33.4564 30.9567 33.4538C30.7302 33.4465 30.4137 33.8512 30.2637 33.9887" stroke="white" stroke-width="2" stroke-linecap="round"/>
<path d="M30.0296 35.0407C30.3848 35.0789 30.6054 34.9055 30.8524 34.6488C30.9047 34.5944 31.302 33.9854 30.8438 34.3694C30.6035 34.5708 30.4465 34.8309 30.3414 35.1209C30.3396 35.1259 30.1897 35.5471 30.1292 35.3201C30.0462 35.009 30.2259 34.5299 30.3327 34.2568C30.538 33.7322 30.8495 33.2955 31.2206 32.8774C31.5725 32.4809 32.5236 31.7882 31.8399 31.2338C31.5277 30.9806 31.094 30.879 30.7204 30.7617C30.4503 30.6769 30.1781 30.5686 29.904 30.4975C28.9986 30.2626 29.0529 31.3801 29.6528 31.7687C29.8805 31.9162 30.3038 32.0648 30.5839 31.9657C30.8042 31.8878 30.2693 31.5867 30.0469 31.5153C29.7699 31.4263 29.4294 31.4241 29.1763 31.2684C28.8099 31.043 28.551 30.5216 28.2755 30.203C28.1761 30.0881 27.3429 29.4257 27.5197 29.2437C27.667 29.0921 28.249 28.5747 27.877 28.3537C27.7216 28.2612 27.4989 28.2342 27.327 28.1869C27.2779 28.1734 27.2294 28.1573 27.1798 28.1458C27.0845 28.1236 27.1904 28.1751 27.2101 28.1847C27.993 28.5667 28.8007 28.7785 29.4838 29.3498C29.6488 29.4877 30.0809 29.9644 29.9559 29.7894C29.8372 29.6231 29.5543 29.4413 29.4102 29.3238C28.8109 28.835 28.2091 28.3424 27.5479 27.9379C27.4637 27.8864 26.0685 27.0888 26.2183 27.6022C26.2938 27.8613 26.4283 28.0353 26.4045 28.2974" stroke="white" stroke-width="2" stroke-linecap="round"/>
<circle cx="20.5" cy="15.5" r="7.5" fill="#C4C4C4"/>
<path d="M5 33L6.32516 34.3252C7.10705 35.1071 7.95221 35.823 8.852 36.4657V36.4657C10.2779 37.4842 11.8341 38.3128 13.4748 38.9281V38.9281C14.4886 39.3082 15.5335 39.6067 16.5952 39.819L17.5451 40.009C19.1711 40.3342 20.8388 40.3951 22.4842 40.1895V40.1895C23.4923 40.0635 24.4854 39.8382 25.4492 39.5169L27.2916 38.9028C28.0962 38.6346 28.8807 38.3096 29.6393 37.9303L29.9473 37.7763C30.979 37.2605 31.9475 36.6271 32.8336 35.8887L34.0515 34.8738C34.3489 34.6259 34.6091 34.3364 34.8239 34.0142L35.2226 33.416C35.4035 33.1448 35.5 32.826 35.5 32.5V32.5" stroke="white"/>
</svg>
