<?xml version="1.0" standalone="no"?>
<!DOCTYPE svg PUBLIC "-//W3C//DTD SVG 20010904//EN"
 "http://www.w3.org/TR/2001/REC-SVG-20010904/DTD/svg10.dtd">
<svg version="1.0" xmlns="http://www.w3.org/2000/svg"
 width="1080.000000pt" height="1080.000000pt" viewBox="0 0 1080.000000 1080.000000"
 preserveAspectRatio="xMidYMid meet">

<g transform="translate(0.000000,1080.000000) scale(0.100000,-0.100000)"
fill="none" stroke="#C3BD2E" stroke-width="100px">
<path d="M0 5400 l0 -5400 5400 0 5400 0 0 5400 0 5400 -5400 0 -5400 0 0
-5400z m5905 2506 c92 -27 88 -12 44 -160 -16 -55 -27 -101 -25 -104 9 -9 171
-52 181 -48 6 2 24 49 40 104 15 56 31 106 36 113 5 9 22 8 72 -6 35 -9 70
-21 78 -25 10 -7 -6 -75 -76 -317 -48 -169 -91 -312 -95 -316 -10 -11 -160 33
-160 47 0 6 15 62 34 123 24 80 30 115 22 121 -14 11 -175 57 -179 51 -2 -2
-19 -56 -37 -119 -18 -63 -35 -118 -39 -121 -8 -9 -154 35 -158 47 -2 6 29
120 67 254 99 341 111 380 113 380 1 0 38 -11 82 -24z m-989 -69 l23 -67 -85
-26 c-65 -19 -84 -29 -80 -40 3 -8 38 -115 77 -237 40 -122 74 -227 76 -233 5
-14 -147 -68 -158 -56 -4 4 -42 114 -84 245 -42 130 -79 237 -83 237 -4 0 -41
-11 -82 -24 -41 -14 -78 -21 -81 -18 -12 12 -41 112 -37 124 4 12 464 168 482
164 5 -1 20 -32 32 -69z m2067 -466 c64 -52 117 -98 117 -102 0 -8 -80 -109
-86 -109 -3 0 -48 35 -101 77 l-95 77 -29 -35 c-16 -18 -29 -37 -29 -41 0 -4
36 -37 80 -74 90 -74 88 -59 18 -143 -32 -37 -27 -39 -124 41 l-72 58 -36 -44
c-20 -25 -36 -47 -36 -50 0 -3 43 -40 95 -82 52 -42 95 -81 95 -88 0 -6 -20
-33 -43 -60 l-42 -48 -167 133 c-92 74 -166 138 -165 142 1 4 94 122 206 262
l204 254 46 -37 c26 -20 99 -79 164 -131z m-2898 64 l0 -69 -38 -8 c-57 -12
-95 -35 -112 -68 -14 -28 -14 -31 5 -50 11 -11 25 -18 32 -15 240 77 313 74
382 -18 115 -153 -34 -379 -265 -404 l-59 -6 0 75 0 75 48 7 c91 12 172 81
146 123 -17 27 -43 27 -140 -1 -134 -39 -198 -34 -258 22 -131 123 -52 329
154 399 19 7 51 11 70 10 l35 -2 0 -70z m945 -390 c118 -36 201 -85 288 -172
l83 -83 56 60 c238 258 638 291 874 72 209 -193 230 -487 58 -798 -151 -272
-484 -613 -874 -892 -55 -40 -106 -72 -115 -72 -32 0 -276 186 -480 366 -317
279 -533 573 -599 814 -31 110 -29 254 4 357 60 190 218 327 418 363 71 12
220 5 287 -15z m-1493 -206 c228 -126 287 -170 324 -242 54 -104 -1 -269 -115
-344 -43 -29 -56 -33 -117 -33 -43 0 -87 7 -118 19 -37 14 -366 189 -390 207
-6 5 73 144 83 144 5 0 86 -42 180 -94 94 -52 190 -99 214 -105 55 -15 90 0
116 52 36 75 1 110 -244 242 -80 43 -151 83 -157 88 -10 7 -4 25 25 78 20 38
40 69 44 69 5 0 74 -37 155 -81z m3923 0 c35 -59 40 -73 29 -84 -8 -7 -104
-65 -214 -130 -110 -64 -204 -121 -209 -125 -4 -4 19 -54 52 -111 33 -57 59
-106 56 -110 -5 -8 -108 -69 -117 -69 -5 0 -205 339 -210 355 -2 8 544 341
564 344 4 1 26 -31 49 -70z m346 -866 c27 -161 25 -221 -7 -285 -36 -70 -146
-117 -241 -101 -88 14 -164 108 -189 234 -6 33 -14 59 -17 59 -2 0 -47 -7 -99
-16 -52 -9 -97 -14 -100 -10 -7 6 -34 158 -30 163 5 4 651 110 655 107 2 -1
14 -69 28 -151z m-4558 -18 c228 -27 290 -47 334 -106 76 -101 55 -267 -40
-333 -54 -37 -68 -34 -97 25 l-26 50 31 35 c16 19 30 41 30 49 0 27 -19 64
-39 74 -11 6 -120 23 -243 38 -123 14 -226 29 -230 32 -4 3 -2 43 4 89 l11 82
31 -5 c17 -3 122 -16 234 -30z m788 -84 c23 -10 52 -34 65 -52 24 -33 24 -38
27 -291 l3 -256 56 -43 c31 -23 90 -76 132 -119 105 -106 140 -127 226 -135
254 -22 402 -81 527 -208 66 -67 138 -203 157 -295 7 -33 11 -211 11 -476 0
-347 -2 -426 -14 -435 -9 -8 -96 -11 -296 -9 -251 3 -284 5 -293 20 -8 12 -4
63 13 185 13 92 24 218 24 280 1 99 -1 115 -19 132 -11 11 -89 56 -173 100
-302 157 -400 241 -546 463 -51 79 -100 162 -109 185 -32 82 -40 213 -32 538
6 292 8 312 28 350 25 45 92 85 142 85 16 0 48 -9 71 -19z m2874 -3 c32 -17
51 -35 66 -65 20 -40 22 -64 29 -350 9 -358 1 -463 -44 -558 -46 -100 -178
-291 -249 -361 -84 -83 -240 -188 -396 -266 -153 -76 -183 -99 -192 -142 -8
-45 12 -284 35 -421 18 -108 18 -133 -3 -147 -6 -4 -138 -8 -292 -8 -231 0
-284 3 -293 14 -9 11 -11 129 -9 463 l3 448 26 67 c39 101 87 173 159 241 116
110 257 166 470 188 129 14 142 21 280 154 58 56 119 111 137 123 l32 23 3
257 c3 253 3 258 27 291 27 37 90 70 136 71 17 0 51 -10 75 -22z m-3860 -1513
l0 -635 -40 0 -40 0 0 635 0 635 40 0 40 0 0 -635z m4780 0 l0 -635 -40 0 -40
0 0 635 0 635 40 0 40 0 0 -635z"/>
<path d="M4745 6968 c-71 -13 -161 -59 -222 -113 -101 -89 -152 -246 -133
-410 29 -251 261 -572 660 -915 116 -99 338 -270 351 -270 12 0 235 173 348
269 145 124 360 342 433 441 130 174 198 308 225 447 53 271 -106 507 -372
554 -225 39 -444 -62 -579 -268 -42 -63 -71 -64 -108 -5 -82 135 -226 239
-376 271 -62 13 -156 13 -227 -1z"/>
<path d="M7570 5916 c-59 -10 -65 -13 -68 -37 -4 -38 22 -94 52 -114 32 -21
85 -14 112 16 13 15 18 34 17 74 -2 83 1 81 -113 61z"/>
<path d="M3912 5777 c-20 -21 -22 -37 -28 -229 l-7 -207 49 2 c27 1 64 -2 82
-6 l32 -9 0 214 c0 211 0 215 -23 236 -31 29 -77 29 -105 -1z"/>
<path d="M3907 5242 c-10 -10 -17 -30 -17 -43 0 -56 102 -171 250 -284 41 -31
104 -90 140 -131 138 -156 256 -232 375 -242 72 -5 95 -24 76 -61 -15 -27 -53
-33 -124 -20 -126 22 -233 92 -372 243 -50 53 -121 121 -160 150 -38 29 -96
76 -127 105 l-57 52 11 -38 c13 -50 18 -58 107 -193 84 -128 183 -234 280
-300 36 -24 137 -81 225 -128 191 -100 211 -114 233 -155 18 -35 23 -177 9
-300 l-8 -67 204 2 203 3 0 295 c0 284 -1 298 -24 368 -77 235 -271 366 -574
388 -121 9 -167 33 -282 144 -117 114 -198 177 -260 206 -60 29 -87 30 -108 6z"/>
<path d="M4737 3733 c-3 -10 -8 -35 -12 -55 l-6 -38 221 0 221 0 -3 53 -3 52
-207 3 c-190 2 -207 1 -211 -15z"/>
<path d="M6782 5777 c-21 -22 -22 -31 -22 -239 l0 -216 47 14 c27 8 61 11 81
8 l35 -7 -7 209 c-7 207 -7 209 -32 232 -33 29 -75 28 -102 -1z"/>
<path d="M6793 5240 c-70 -31 -123 -72 -245 -189 -145 -138 -177 -154 -330
-169 -257 -26 -421 -121 -508 -292 -57 -112 -60 -138 -60 -462 l0 -298 198 0
198 0 -4 149 c-5 179 0 211 38 249 16 16 105 70 198 119 205 109 260 145 352
230 99 92 241 305 271 405 6 24 -1 20 -64 -35 -40 -34 -99 -83 -132 -109 -33
-26 -96 -86 -140 -134 -125 -138 -260 -226 -372 -244 -67 -11 -110 -4 -124 21
-19 37 4 55 77 62 122 12 231 81 371 237 37 41 101 101 142 134 206 160 289
278 233 329 -24 22 -47 21 -99 -3z"/>
<path d="M5650 3695 l0 -55 215 0 216 0 -6 38 c-14 79 6 72 -221 72 l-204 0 0
-55z"/>
</g>
</svg>
